# xmcd
#
# Track frame offsets: 
#        150
#        16338
#        28700
#        57460
#        76431
#        91913
#        107904
#        133836
#        152976
#        168713
#        184760
#        199626
#        217824
#        232660
#
# Disc length: 3323 seconds
#
# Revision: 0
# Processed by: cddbd v1.5.2PL0 Copyright (c) Steve Scherf et al.
# Submitted via: ExactAudioCopy v0.99pb5
#
DISCID=b70cf90e
DTITLE=Andy Just - Preachin' The Blues
DYEAR=2010
DGENRE=Blues
TTITLE0=You're So Fine
TTITLE1=Wild Cat
TTITLE2=Driftin'
TTITLE3=I'm Gonna Change
TTITLE4=I Was Walkin'
TTITLE5=I Am A Loner
TTITLE6=Preachin' The Blues
TTITLE7=Love You Baby
TTITLE8=Andy's Boogaloo
TTITLE9=Gone Before I Knew It
TTITLE10=Shake
TTITLE11=Hey Little Girl
TTITLE12=Devil's Hand
TTITLE13=Flyn' High
EXTD=
EXTT0=
EXTT1=
EXTT2=
EXTT3=
EXTT4=
EXTT5=
EXTT6=
EXTT7=
EXTT8=
EXTT9=
EXTT10=
EXTT11=
EXTT12=
EXTT13=
PLAYORDER=
